<?xml version="1.0" encoding="UTF-8" standalone="no"?>
<svg
   version="1.1"
   id="Layer_1"
   x="0px"
   y="0px"
   width="1160px"
   height="1160px"
   viewBox="0 0 1160 1160"
   enable-background="new 0 0 1160 1160"
   xml:space="preserve"
   sodipodi:docname="qr-code.svg"
   inkscape:export-filename="qr-code.jpg"
   inkscape:export-xdpi="21.186207"
   inkscape:export-ydpi="21.186207"
   inkscape:version="1.4 (e7c3feb1, 2024-10-09)"
   xmlns:inkscape="http://www.inkscape.org/namespaces/inkscape"
   xmlns:sodipodi="http://sodipodi.sourceforge.net/DTD/sodipodi-0.dtd"
   xmlns="http://www.w3.org/2000/svg"
   xmlns:svg="http://www.w3.org/2000/svg"><defs
   id="defs470" /><sodipodi:namedview
   id="namedview470"
   pagecolor="#ffffff"
   bordercolor="#000000"
   borderopacity="0.25"
   inkscape:showpageshadow="2"
   inkscape:pageopacity="0.0"
   inkscape:pagecheckerboard="0"
   inkscape:deskcolor="#d1d1d1"
   inkscape:zoom="0.022413793"
   inkscape:cx="580"
   inkscape:cy="580"
   inkscape:window-width="1728"
   inkscape:window-height="1063"
   inkscape:window-x="0"
   inkscape:window-y="44"
   inkscape:window-maximized="0"
   inkscape:current-layer="Layer_1" />
<rect
   x="0"
   y="0"
   width="1160"
   height="1160"
   fill="rgb(255,255,255)"
   id="rect1" /><g
   transform="translate(80,80)"
   id="g470"><g
     transform="translate(320,0) scale(0.08,0.08)"
     id="g2"><g
       transform=""
       style="fill: rgb(0, 0, 0);"
       id="g1">
<path
   d="M250,0c138.077,0,250,111.93,250,250c0,138.077-111.923,250-250,250C111.93,500,0,388.077,0,250C0,111.93,111.93,0,250,0z"
   id="path1" />
</g></g><g
     transform="translate(560,0) scale(0.08,0.08)"
     id="g4"><g
       transform=""
       style="fill: rgb(0, 0, 0);"
       id="g3">
<path
   d="M250,0c138.077,0,250,111.93,250,250c0,138.077-111.923,250-250,250C111.93,500,0,388.077,0,250C0,111.93,111.93,0,250,0z"
   id="path2" />
</g></g><g
     transform="translate(640,0) scale(0.08,0.08)"
     id="g6"><g
       transform=""
       style="fill: rgb(0, 0, 0);"
       id="g5">
<path
   d="M250,0c138.077,0,250,111.93,250,250c0,138.077-111.923,250-250,250C111.93,500,0,388.077,0,250C0,111.93,111.93,0,250,0z"
   id="path4" />
</g></g><g
     transform="translate(320,40) scale(0.08,0.08)"
     id="g8"><g
       transform=""
       style="fill: rgb(0, 0, 0);"
       id="g7">
<path
   d="M250,0c138.077,0,250,111.93,250,250c0,138.077-111.923,250-250,250C111.93,500,0,388.077,0,250C0,111.93,111.93,0,250,0z"
   id="path6" />
</g></g><g
     transform="translate(360,40) scale(0.08,0.08)"
     id="g10"><g
       transform=""
       style="fill: rgb(0, 0, 0);"
       id="g9">
<path
   d="M250,0c138.077,0,250,111.93,250,250c0,138.077-111.923,250-250,250C111.93,500,0,388.077,0,250C0,111.93,111.93,0,250,0z"
   id="path8" />
</g></g><g
     transform="translate(400,40) scale(0.08,0.08)"
     id="g12"><g
       transform=""
       style="fill: rgb(0, 0, 0);"
       id="g11">
<path
   d="M250,0c138.077,0,250,111.93,250,250c0,138.077-111.923,250-250,250C111.93,500,0,388.077,0,250C0,111.93,111.93,0,250,0z"
   id="path10" />
</g></g><g
     transform="translate(440,40) scale(0.08,0.08)"
     id="g14"><g
       transform=""
       style="fill: rgb(0, 0, 0);"
       id="g13">
<path
   d="M250,0c138.077,0,250,111.93,250,250c0,138.077-111.923,250-250,250C111.93,500,0,388.077,0,250C0,111.93,111.93,0,250,0z"
   id="path12" />
</g></g><g
     transform="translate(520,40) scale(0.08,0.08)"
     id="g16"><g
       transform=""
       style="fill: rgb(0, 0, 0);"
       id="g15">
<path
   d="M250,0c138.077,0,250,111.93,250,250c0,138.077-111.923,250-250,250C111.93,500,0,388.077,0,250C0,111.93,111.93,0,250,0z"
   id="path14" />
</g></g><g
     transform="translate(560,40) scale(0.08,0.08)"
     id="g18"><g
       transform=""
       style="fill: rgb(0, 0, 0);"
       id="g17">
<path
   d="M250,0c138.077,0,250,111.93,250,250c0,138.077-111.923,250-250,250C111.93,500,0,388.077,0,250C0,111.93,111.93,0,250,0z"
   id="path16" />
</g></g><g
     transform="translate(640,40) scale(0.08,0.08)"
     id="g20"><g
       transform=""
       style="fill: rgb(0, 0, 0);"
       id="g19">
<path
   d="M250,0c138.077,0,250,111.93,250,250c0,138.077-111.923,250-250,250C111.93,500,0,388.077,0,250C0,111.93,111.93,0,250,0z"
   id="path18" />
</g></g><g
     transform="translate(360,80) scale(0.08,0.08)"
     id="g22"><g
       transform=""
       style="fill: rgb(0, 0, 0);"
       id="g21">
<path
   d="M250,0c138.077,0,250,111.93,250,250c0,138.077-111.923,250-250,250C111.93,500,0,388.077,0,250C0,111.93,111.93,0,250,0z"
   id="path20" />
</g></g><g
     transform="translate(400,80) scale(0.08,0.08)"
     id="g24"><g
       transform=""
       style="fill: rgb(0, 0, 0);"
       id="g23">
<path
   d="M250,0c138.077,0,250,111.93,250,250c0,138.077-111.923,250-250,250C111.93,500,0,388.077,0,250C0,111.93,111.93,0,250,0z"
   id="path22" />
</g></g><g
     transform="translate(520,80) scale(0.08,0.08)"
     id="g26"><g
       transform=""
       style="fill: rgb(0, 0, 0);"
       id="g25">
<path
   d="M250,0c138.077,0,250,111.93,250,250c0,138.077-111.923,250-250,250C111.93,500,0,388.077,0,250C0,111.93,111.93,0,250,0z"
   id="path24" />
</g></g><g
     transform="translate(320,120) scale(0.08,0.08)"
     id="g28"><g
       transform=""
       style="fill: rgb(0, 0, 0);"
       id="g27">
<path
   d="M250,0c138.077,0,250,111.93,250,250c0,138.077-111.923,250-250,250C111.93,500,0,388.077,0,250C0,111.93,111.93,0,250,0z"
   id="path26" />
</g></g><g
     transform="translate(360,120) scale(0.08,0.08)"
     id="g30"><g
       transform=""
       style="fill: rgb(0, 0, 0);"
       id="g29">
<path
   d="M250,0c138.077,0,250,111.93,250,250c0,138.077-111.923,250-250,250C111.93,500,0,388.077,0,250C0,111.93,111.93,0,250,0z"
   id="path28" />
</g></g><g
     transform="translate(400,120) scale(0.08,0.08)"
     id="g32"><g
       transform=""
       style="fill: rgb(0, 0, 0);"
       id="g31">
<path
   d="M250,0c138.077,0,250,111.93,250,250c0,138.077-111.923,250-250,250C111.93,500,0,388.077,0,250C0,111.93,111.93,0,250,0z"
   id="path30" />
</g></g><g
     transform="translate(480,120) scale(0.08,0.08)"
     id="g34"><g
       transform=""
       style="fill: rgb(0, 0, 0);"
       id="g33">
<path
   d="M250,0c138.077,0,250,111.93,250,250c0,138.077-111.923,250-250,250C111.93,500,0,388.077,0,250C0,111.93,111.93,0,250,0z"
   id="path32" />
</g></g><g
     transform="translate(520,120) scale(0.08,0.08)"
     id="g36"><g
       transform=""
       style="fill: rgb(0, 0, 0);"
       id="g35">
<path
   d="M250,0c138.077,0,250,111.93,250,250c0,138.077-111.923,250-250,250C111.93,500,0,388.077,0,250C0,111.93,111.93,0,250,0z"
   id="path34" />
</g></g><g
     transform="translate(600,120) scale(0.08,0.08)"
     id="g38"><g
       transform=""
       style="fill: rgb(0, 0, 0);"
       id="g37">
<path
   d="M250,0c138.077,0,250,111.93,250,250c0,138.077-111.923,250-250,250C111.93,500,0,388.077,0,250C0,111.93,111.93,0,250,0z"
   id="path36" />
</g></g><g
     transform="translate(360,160) scale(0.08,0.08)"
     id="g40"><g
       transform=""
       style="fill: rgb(0, 0, 0);"
       id="g39">
<path
   d="M250,0c138.077,0,250,111.93,250,250c0,138.077-111.923,250-250,250C111.93,500,0,388.077,0,250C0,111.93,111.93,0,250,0z"
   id="path38" />
</g></g><g
     transform="translate(400,160) scale(0.08,0.08)"
     id="g42"><g
       transform=""
       style="fill: rgb(0, 0, 0);"
       id="g41">
<path
   d="M250,0c138.077,0,250,111.93,250,250c0,138.077-111.923,250-250,250C111.93,500,0,388.077,0,250C0,111.93,111.93,0,250,0z"
   id="path40" />
</g></g><g
     transform="translate(440,160) scale(0.08,0.08)"
     id="g44"><g
       transform=""
       style="fill: rgb(0, 0, 0);"
       id="g43">
<path
   d="M250,0c138.077,0,250,111.93,250,250c0,138.077-111.923,250-250,250C111.93,500,0,388.077,0,250C0,111.93,111.93,0,250,0z"
   id="path42" />
</g></g><g
     transform="translate(520,160) scale(0.08,0.08)"
     id="g46"><g
       transform=""
       style="fill: rgb(0, 0, 0);"
       id="g45">
<path
   d="M250,0c138.077,0,250,111.93,250,250c0,138.077-111.923,250-250,250C111.93,500,0,388.077,0,250C0,111.93,111.93,0,250,0z"
   id="path44" />
</g></g><g
     transform="translate(560,160) scale(0.08,0.08)"
     id="g48"><g
       transform=""
       style="fill: rgb(0, 0, 0);"
       id="g47">
<path
   d="M250,0c138.077,0,250,111.93,250,250c0,138.077-111.923,250-250,250C111.93,500,0,388.077,0,250C0,111.93,111.93,0,250,0z"
   id="path46" />
</g></g><g
     transform="translate(600,160) scale(0.08,0.08)"
     id="g50"><g
       transform=""
       style="fill: rgb(0, 0, 0);"
       id="g49">
<path
   d="M250,0c138.077,0,250,111.93,250,250c0,138.077-111.923,250-250,250C111.93,500,0,388.077,0,250C0,111.93,111.93,0,250,0z"
   id="path48" />
</g></g><g
     transform="translate(640,160) scale(0.08,0.08)"
     id="g52"><g
       transform=""
       style="fill: rgb(0, 0, 0);"
       id="g51">
<path
   d="M250,0c138.077,0,250,111.93,250,250c0,138.077-111.923,250-250,250C111.93,500,0,388.077,0,250C0,111.93,111.93,0,250,0z"
   id="path50" />
</g></g><g
     transform="translate(560,200) scale(0.08,0.08)"
     id="g54"><g
       transform=""
       style="fill: rgb(0, 0, 0);"
       id="g53">
<path
   d="M250,0c138.077,0,250,111.93,250,250c0,138.077-111.923,250-250,250C111.93,500,0,388.077,0,250C0,111.93,111.93,0,250,0z"
   id="path52" />
</g></g><g
     transform="translate(640,200) scale(0.08,0.08)"
     id="g56"><g
       transform=""
       style="fill: rgb(0, 0, 0);"
       id="g55">
<path
   d="M250,0c138.077,0,250,111.93,250,250c0,138.077-111.923,250-250,250C111.93,500,0,388.077,0,250C0,111.93,111.93,0,250,0z"
   id="path54" />
</g></g><g
     transform="translate(320,240) scale(0.08,0.08)"
     id="g58"><g
       transform=""
       style="fill: rgb(0, 0, 0);"
       id="g57">
<path
   d="M250,0c138.077,0,250,111.93,250,250c0,138.077-111.923,250-250,250C111.93,500,0,388.077,0,250C0,111.93,111.93,0,250,0z"
   id="path56" />
</g></g><g
     transform="translate(400,240) scale(0.08,0.08)"
     id="g60"><g
       transform=""
       style="fill: rgb(0, 0, 0);"
       id="g59">
<path
   d="M250,0c138.077,0,250,111.93,250,250c0,138.077-111.923,250-250,250C111.93,500,0,388.077,0,250C0,111.93,111.93,0,250,0z"
   id="path58" />
</g></g><g
     transform="translate(480,240) scale(0.08,0.08)"
     id="g62"><g
       transform=""
       style="fill: rgb(0, 0, 0);"
       id="g61">
<path
   d="M250,0c138.077,0,250,111.93,250,250c0,138.077-111.923,250-250,250C111.93,500,0,388.077,0,250C0,111.93,111.93,0,250,0z"
   id="path60" />
</g></g><g
     transform="translate(560,240) scale(0.08,0.08)"
     id="g64"><g
       transform=""
       style="fill: rgb(0, 0, 0);"
       id="g63">
<path
   d="M250,0c138.077,0,250,111.93,250,250c0,138.077-111.923,250-250,250C111.93,500,0,388.077,0,250C0,111.93,111.93,0,250,0z"
   id="path62" />
</g></g><g
     transform="translate(640,240) scale(0.08,0.08)"
     id="g66"><g
       transform=""
       style="fill: rgb(0, 0, 0);"
       id="g65">
<path
   d="M250,0c138.077,0,250,111.93,250,250c0,138.077-111.923,250-250,250C111.93,500,0,388.077,0,250C0,111.93,111.93,0,250,0z"
   id="path64" />
</g></g><g
     transform="translate(320,280) scale(0.08,0.08)"
     id="g68"><g
       transform=""
       style="fill: rgb(0, 0, 0);"
       id="g67">
<path
   d="M250,0c138.077,0,250,111.93,250,250c0,138.077-111.923,250-250,250C111.93,500,0,388.077,0,250C0,111.93,111.93,0,250,0z"
   id="path66" />
</g></g><g
     transform="translate(400,280) scale(0.08,0.08)"
     id="g70"><g
       transform=""
       style="fill: rgb(0, 0, 0);"
       id="g69">
<path
   d="M250,0c138.077,0,250,111.93,250,250c0,138.077-111.923,250-250,250C111.93,500,0,388.077,0,250C0,111.93,111.93,0,250,0z"
   id="path68" />
</g></g><g
     transform="translate(560,280) scale(0.08,0.08)"
     id="g72"><g
       transform=""
       style="fill: rgb(0, 0, 0);"
       id="g71">
<path
   d="M250,0c138.077,0,250,111.93,250,250c0,138.077-111.923,250-250,250C111.93,500,0,388.077,0,250C0,111.93,111.93,0,250,0z"
   id="path70" />
</g></g><g
     transform="translate(640,280) scale(0.08,0.08)"
     id="g74"><g
       transform=""
       style="fill: rgb(0, 0, 0);"
       id="g73">
<path
   d="M250,0c138.077,0,250,111.93,250,250c0,138.077-111.923,250-250,250C111.93,500,0,388.077,0,250C0,111.93,111.93,0,250,0z"
   id="path72" />
</g></g><g
     transform="translate(0,320) scale(0.08,0.08)"
     id="g76"><g
       transform=""
       style="fill: rgb(0, 0, 0);"
       id="g75">
<path
   d="M250,0c138.077,0,250,111.93,250,250c0,138.077-111.923,250-250,250C111.93,500,0,388.077,0,250C0,111.93,111.93,0,250,0z"
   id="path74" />
</g></g><g
     transform="translate(80,320) scale(0.08,0.08)"
     id="g78"><g
       transform=""
       style="fill: rgb(0, 0, 0);"
       id="g77">
<path
   d="M250,0c138.077,0,250,111.93,250,250c0,138.077-111.923,250-250,250C111.93,500,0,388.077,0,250C0,111.93,111.93,0,250,0z"
   id="path76" />
</g></g><g
     transform="translate(120,320) scale(0.08,0.08)"
     id="g80"><g
       transform=""
       style="fill: rgb(0, 0, 0);"
       id="g79">
<path
   d="M250,0c138.077,0,250,111.93,250,250c0,138.077-111.923,250-250,250C111.93,500,0,388.077,0,250C0,111.93,111.93,0,250,0z"
   id="path78" />
</g></g><g
     transform="translate(200,320) scale(0.08,0.08)"
     id="g82"><g
       transform=""
       style="fill: rgb(0, 0, 0);"
       id="g81">
<path
   d="M250,0c138.077,0,250,111.93,250,250c0,138.077-111.923,250-250,250C111.93,500,0,388.077,0,250C0,111.93,111.93,0,250,0z"
   id="path80" />
</g></g><g
     transform="translate(240,320) scale(0.08,0.08)"
     id="g84"><g
       transform=""
       style="fill: rgb(0, 0, 0);"
       id="g83">
<path
   d="M250,0c138.077,0,250,111.93,250,250c0,138.077-111.923,250-250,250C111.93,500,0,388.077,0,250C0,111.93,111.93,0,250,0z"
   id="path82" />
</g></g><g
     transform="translate(280,320) scale(0.08,0.08)"
     id="g86"><g
       transform=""
       style="fill: rgb(0, 0, 0);"
       id="g85">
<path
   d="M250,0c138.077,0,250,111.93,250,250c0,138.077-111.923,250-250,250C111.93,500,0,388.077,0,250C0,111.93,111.93,0,250,0z"
   id="path84" />
</g></g><g
     transform="translate(360,320) scale(0.08,0.08)"
     id="g88"><g
       transform=""
       style="fill: rgb(0, 0, 0);"
       id="g87">
<path
   d="M250,0c138.077,0,250,111.93,250,250c0,138.077-111.923,250-250,250C111.93,500,0,388.077,0,250C0,111.93,111.93,0,250,0z"
   id="path86" />
</g></g><g
     transform="translate(480,320) scale(0.08,0.08)"
     id="g90"><g
       transform=""
       style="fill: rgb(0, 0, 0);"
       id="g89">
<path
   d="M250,0c138.077,0,250,111.93,250,250c0,138.077-111.923,250-250,250C111.93,500,0,388.077,0,250C0,111.93,111.93,0,250,0z"
   id="path88" />
</g></g><g
     transform="translate(560,320) scale(0.08,0.08)"
     id="g92"><g
       transform=""
       style="fill: rgb(0, 0, 0);"
       id="g91">
<path
   d="M250,0c138.077,0,250,111.93,250,250c0,138.077-111.923,250-250,250C111.93,500,0,388.077,0,250C0,111.93,111.93,0,250,0z"
   id="path90" />
</g></g><g
     transform="translate(720,320) scale(0.08,0.08)"
     id="g94"><g
       transform=""
       style="fill: rgb(0, 0, 0);"
       id="g93">
<path
   d="M250,0c138.077,0,250,111.93,250,250c0,138.077-111.923,250-250,250C111.93,500,0,388.077,0,250C0,111.93,111.93,0,250,0z"
   id="path92" />
</g></g><g
     transform="translate(840,320) scale(0.08,0.08)"
     id="g96"><g
       transform=""
       style="fill: rgb(0, 0, 0);"
       id="g95">
<path
   d="M250,0c138.077,0,250,111.93,250,250c0,138.077-111.923,250-250,250C111.93,500,0,388.077,0,250C0,111.93,111.93,0,250,0z"
   id="path94" />
</g></g><g
     transform="translate(920,320) scale(0.08,0.08)"
     id="g98"><g
       transform=""
       style="fill: rgb(0, 0, 0);"
       id="g97">
<path
   d="M250,0c138.077,0,250,111.93,250,250c0,138.077-111.923,250-250,250C111.93,500,0,388.077,0,250C0,111.93,111.93,0,250,0z"
   id="path96" />
</g></g><g
     transform="translate(960,320) scale(0.08,0.08)"
     id="g100"><g
       transform=""
       style="fill: rgb(0, 0, 0);"
       id="g99">
<path
   d="M250,0c138.077,0,250,111.93,250,250c0,138.077-111.923,250-250,250C111.93,500,0,388.077,0,250C0,111.93,111.93,0,250,0z"
   id="path98" />
</g></g><g
     transform="translate(0,360) scale(0.08,0.08)"
     id="g102"><g
       transform=""
       style="fill: rgb(0, 0, 0);"
       id="g101">
<path
   d="M250,0c138.077,0,250,111.93,250,250c0,138.077-111.923,250-250,250C111.93,500,0,388.077,0,250C0,111.93,111.93,0,250,0z"
   id="path100" />
</g></g><g
     transform="translate(40,360) scale(0.08,0.08)"
     id="g104"><g
       transform=""
       style="fill: rgb(0, 0, 0);"
       id="g103">
<path
   d="M250,0c138.077,0,250,111.93,250,250c0,138.077-111.923,250-250,250C111.93,500,0,388.077,0,250C0,111.93,111.93,0,250,0z"
   id="path102" />
</g></g><g
     transform="translate(80,360) scale(0.08,0.08)"
     id="g106"><g
       transform=""
       style="fill: rgb(0, 0, 0);"
       id="g105">
<path
   d="M250,0c138.077,0,250,111.93,250,250c0,138.077-111.923,250-250,250C111.93,500,0,388.077,0,250C0,111.93,111.93,0,250,0z"
   id="path104" />
</g></g><g
     transform="translate(160,360) scale(0.08,0.08)"
     id="g108"><g
       transform=""
       style="fill: rgb(0, 0, 0);"
       id="g107">
<path
   d="M250,0c138.077,0,250,111.93,250,250c0,138.077-111.923,250-250,250C111.93,500,0,388.077,0,250C0,111.93,111.93,0,250,0z"
   id="path106" />
</g></g><g
     transform="translate(200,360) scale(0.08,0.08)"
     id="g110"><g
       transform=""
       style="fill: rgb(0, 0, 0);"
       id="g109">
<path
   d="M250,0c138.077,0,250,111.93,250,250c0,138.077-111.923,250-250,250C111.93,500,0,388.077,0,250C0,111.93,111.93,0,250,0z"
   id="path108" />
</g></g><g
     transform="translate(360,360) scale(0.08,0.08)"
     id="g112"><g
       transform=""
       style="fill: rgb(0, 0, 0);"
       id="g111">
<path
   d="M250,0c138.077,0,250,111.93,250,250c0,138.077-111.923,250-250,250C111.93,500,0,388.077,0,250C0,111.93,111.93,0,250,0z"
   id="path110" />
</g></g><g
     transform="translate(440,360) scale(0.08,0.08)"
     id="g114"><g
       transform=""
       style="fill: rgb(0, 0, 0);"
       id="g113">
<path
   d="M250,0c138.077,0,250,111.93,250,250c0,138.077-111.923,250-250,250C111.93,500,0,388.077,0,250C0,111.93,111.93,0,250,0z"
   id="path112" />
</g></g><g
     transform="translate(640,360) scale(0.08,0.08)"
     id="g116"><g
       transform=""
       style="fill: rgb(0, 0, 0);"
       id="g115">
<path
   d="M250,0c138.077,0,250,111.93,250,250c0,138.077-111.923,250-250,250C111.93,500,0,388.077,0,250C0,111.93,111.93,0,250,0z"
   id="path114" />
</g></g><g
     transform="translate(680,360) scale(0.08,0.08)"
     id="g118"><g
       transform=""
       style="fill: rgb(0, 0, 0);"
       id="g117">
<path
   d="M250,0c138.077,0,250,111.93,250,250c0,138.077-111.923,250-250,250C111.93,500,0,388.077,0,250C0,111.93,111.93,0,250,0z"
   id="path116" />
</g></g><g
     transform="translate(760,360) scale(0.08,0.08)"
     id="g120"><g
       transform=""
       style="fill: rgb(0, 0, 0);"
       id="g119">
<path
   d="M250,0c138.077,0,250,111.93,250,250c0,138.077-111.923,250-250,250C111.93,500,0,388.077,0,250C0,111.93,111.93,0,250,0z"
   id="path118" />
</g></g><g
     transform="translate(920,360) scale(0.08,0.08)"
     id="g122"><g
       transform=""
       style="fill: rgb(0, 0, 0);"
       id="g121">
<path
   d="M250,0c138.077,0,250,111.93,250,250c0,138.077-111.923,250-250,250C111.93,500,0,388.077,0,250C0,111.93,111.93,0,250,0z"
   id="path120" />
</g></g><g
     transform="translate(0,400) scale(0.08,0.08)"
     id="g124"><g
       transform=""
       style="fill: rgb(0, 0, 0);"
       id="g123">
<path
   d="M250,0c138.077,0,250,111.93,250,250c0,138.077-111.923,250-250,250C111.93,500,0,388.077,0,250C0,111.93,111.93,0,250,0z"
   id="path122" />
</g></g><g
     transform="translate(80,400) scale(0.08,0.08)"
     id="g126"><g
       transform=""
       style="fill: rgb(0, 0, 0);"
       id="g125">
<path
   d="M250,0c138.077,0,250,111.93,250,250c0,138.077-111.923,250-250,250C111.93,500,0,388.077,0,250C0,111.93,111.93,0,250,0z"
   id="path124" />
</g></g><g
     transform="translate(120,400) scale(0.08,0.08)"
     id="g128"><g
       transform=""
       style="fill: rgb(0, 0, 0);"
       id="g127">
<path
   d="M250,0c138.077,0,250,111.93,250,250c0,138.077-111.923,250-250,250C111.93,500,0,388.077,0,250C0,111.93,111.93,0,250,0z"
   id="path126" />
</g></g><g
     transform="translate(200,400) scale(0.08,0.08)"
     id="g130"><g
       transform=""
       style="fill: rgb(0, 0, 0);"
       id="g129">
<path
   d="M250,0c138.077,0,250,111.93,250,250c0,138.077-111.923,250-250,250C111.93,500,0,388.077,0,250C0,111.93,111.93,0,250,0z"
   id="path128" />
</g></g><g
     transform="translate(240,400) scale(0.08,0.08)"
     id="g132"><g
       transform=""
       style="fill: rgb(0, 0, 0);"
       id="g131">
<path
   d="M250,0c138.077,0,250,111.93,250,250c0,138.077-111.923,250-250,250C111.93,500,0,388.077,0,250C0,111.93,111.93,0,250,0z"
   id="path130" />
</g></g><g
     transform="translate(320,400) scale(0.08,0.08)"
     id="g134"><g
       transform=""
       style="fill: rgb(0, 0, 0);"
       id="g133">
<path
   d="M250,0c138.077,0,250,111.93,250,250c0,138.077-111.923,250-250,250C111.93,500,0,388.077,0,250C0,111.93,111.93,0,250,0z"
   id="path132" />
</g></g><g
     transform="translate(360,400) scale(0.08,0.08)"
     id="g136"><g
       transform=""
       style="fill: rgb(0, 0, 0);"
       id="g135">
<path
   d="M250,0c138.077,0,250,111.93,250,250c0,138.077-111.923,250-250,250C111.93,500,0,388.077,0,250C0,111.93,111.93,0,250,0z"
   id="path134" />
</g></g><g
     transform="translate(400,400) scale(0.08,0.08)"
     id="g138"><g
       transform=""
       style="fill: rgb(0, 0, 0);"
       id="g137">
<path
   d="M250,0c138.077,0,250,111.93,250,250c0,138.077-111.923,250-250,250C111.93,500,0,388.077,0,250C0,111.93,111.93,0,250,0z"
   id="path136" />
</g></g><g
     transform="translate(480,400) scale(0.08,0.08)"
     id="g140"><g
       transform=""
       style="fill: rgb(0, 0, 0);"
       id="g139">
<path
   d="M250,0c138.077,0,250,111.93,250,250c0,138.077-111.923,250-250,250C111.93,500,0,388.077,0,250C0,111.93,111.93,0,250,0z"
   id="path138" />
</g></g><g
     transform="translate(520,400) scale(0.08,0.08)"
     id="g142"><g
       transform=""
       style="fill: rgb(0, 0, 0);"
       id="g141">
<path
   d="M250,0c138.077,0,250,111.93,250,250c0,138.077-111.923,250-250,250C111.93,500,0,388.077,0,250C0,111.93,111.93,0,250,0z"
   id="path140" />
</g></g><g
     transform="translate(560,400) scale(0.08,0.08)"
     id="g144"><g
       transform=""
       style="fill: rgb(0, 0, 0);"
       id="g143">
<path
   d="M250,0c138.077,0,250,111.93,250,250c0,138.077-111.923,250-250,250C111.93,500,0,388.077,0,250C0,111.93,111.93,0,250,0z"
   id="path142" />
</g></g><g
     transform="translate(680,400) scale(0.08,0.08)"
     id="g146"><g
       transform=""
       style="fill: rgb(0, 0, 0);"
       id="g145">
<path
   d="M250,0c138.077,0,250,111.93,250,250c0,138.077-111.923,250-250,250C111.93,500,0,388.077,0,250C0,111.93,111.93,0,250,0z"
   id="path144" />
</g></g><g
     transform="translate(800,400) scale(0.08,0.08)"
     id="g148"><g
       transform=""
       style="fill: rgb(0, 0, 0);"
       id="g147">
<path
   d="M250,0c138.077,0,250,111.93,250,250c0,138.077-111.923,250-250,250C111.93,500,0,388.077,0,250C0,111.93,111.93,0,250,0z"
   id="path146" />
</g></g><g
     transform="translate(40,440) scale(0.08,0.08)"
     id="g150"><g
       transform=""
       style="fill: rgb(0, 0, 0);"
       id="g149">
<path
   d="M250,0c138.077,0,250,111.93,250,250c0,138.077-111.923,250-250,250C111.93,500,0,388.077,0,250C0,111.93,111.93,0,250,0z"
   id="path148" />
</g></g><g
     transform="translate(80,440) scale(0.08,0.08)"
     id="g152"><g
       transform=""
       style="fill: rgb(0, 0, 0);"
       id="g151">
<path
   d="M250,0c138.077,0,250,111.93,250,250c0,138.077-111.923,250-250,250C111.93,500,0,388.077,0,250C0,111.93,111.93,0,250,0z"
   id="path150" />
</g></g><g
     transform="translate(160,440) scale(0.08,0.08)"
     id="g154"><g
       transform=""
       style="fill: rgb(0, 0, 0);"
       id="g153">
<path
   d="M250,0c138.077,0,250,111.93,250,250c0,138.077-111.923,250-250,250C111.93,500,0,388.077,0,250C0,111.93,111.93,0,250,0z"
   id="path152" />
</g></g><g
     transform="translate(200,440) scale(0.08,0.08)"
     id="g156"><g
       transform=""
       style="fill: rgb(0, 0, 0);"
       id="g155">
<path
   d="M250,0c138.077,0,250,111.93,250,250c0,138.077-111.923,250-250,250C111.93,500,0,388.077,0,250C0,111.93,111.93,0,250,0z"
   id="path154" />
</g></g><g
     transform="translate(320,440) scale(0.08,0.08)"
     id="g158"><g
       transform=""
       style="fill: rgb(0, 0, 0);"
       id="g157">
<path
   d="M250,0c138.077,0,250,111.93,250,250c0,138.077-111.923,250-250,250C111.93,500,0,388.077,0,250C0,111.93,111.93,0,250,0z"
   id="path156" />
</g></g><g
     transform="translate(360,440) scale(0.08,0.08)"
     id="g160"><g
       transform=""
       style="fill: rgb(0, 0, 0);"
       id="g159">
<path
   d="M250,0c138.077,0,250,111.93,250,250c0,138.077-111.923,250-250,250C111.93,500,0,388.077,0,250C0,111.93,111.93,0,250,0z"
   id="path158" />
</g></g><g
     transform="translate(440,440) scale(0.08,0.08)"
     id="g162"><g
       transform=""
       style="fill: rgb(0, 0, 0);"
       id="g161">
<path
   d="M250,0c138.077,0,250,111.93,250,250c0,138.077-111.923,250-250,250C111.93,500,0,388.077,0,250C0,111.93,111.93,0,250,0z"
   id="path160" />
</g></g><g
     transform="translate(480,440) scale(0.08,0.08)"
     id="g164"><g
       transform=""
       style="fill: rgb(0, 0, 0);"
       id="g163">
<path
   d="M250,0c138.077,0,250,111.93,250,250c0,138.077-111.923,250-250,250C111.93,500,0,388.077,0,250C0,111.93,111.93,0,250,0z"
   id="path162" />
</g></g><g
     transform="translate(520,440) scale(0.08,0.08)"
     id="g166"><g
       transform=""
       style="fill: rgb(0, 0, 0);"
       id="g165">
<path
   d="M250,0c138.077,0,250,111.93,250,250c0,138.077-111.923,250-250,250C111.93,500,0,388.077,0,250C0,111.93,111.93,0,250,0z"
   id="path164" />
</g></g><g
     transform="translate(560,440) scale(0.08,0.08)"
     id="g168"><g
       transform=""
       style="fill: rgb(0, 0, 0);"
       id="g167">
<path
   d="M250,0c138.077,0,250,111.93,250,250c0,138.077-111.923,250-250,250C111.93,500,0,388.077,0,250C0,111.93,111.93,0,250,0z"
   id="path166" />
</g></g><g
     transform="translate(720,440) scale(0.08,0.08)"
     id="g170"><g
       transform=""
       style="fill: rgb(0, 0, 0);"
       id="g169">
<path
   d="M250,0c138.077,0,250,111.93,250,250c0,138.077-111.923,250-250,250C111.93,500,0,388.077,0,250C0,111.93,111.93,0,250,0z"
   id="path168" />
</g></g><g
     transform="translate(840,440) scale(0.08,0.08)"
     id="g172"><g
       transform=""
       style="fill: rgb(0, 0, 0);"
       id="g171">
<path
   d="M250,0c138.077,0,250,111.93,250,250c0,138.077-111.923,250-250,250C111.93,500,0,388.077,0,250C0,111.93,111.93,0,250,0z"
   id="path170" />
</g></g><g
     transform="translate(880,440) scale(0.08,0.08)"
     id="g174"><g
       transform=""
       style="fill: rgb(0, 0, 0);"
       id="g173">
<path
   d="M250,0c138.077,0,250,111.93,250,250c0,138.077-111.923,250-250,250C111.93,500,0,388.077,0,250C0,111.93,111.93,0,250,0z"
   id="path172" />
</g></g><g
     transform="translate(40,480) scale(0.08,0.08)"
     id="g176"><g
       transform=""
       style="fill: rgb(0, 0, 0);"
       id="g175">
<path
   d="M250,0c138.077,0,250,111.93,250,250c0,138.077-111.923,250-250,250C111.93,500,0,388.077,0,250C0,111.93,111.93,0,250,0z"
   id="path174" />
</g></g><g
     transform="translate(160,480) scale(0.08,0.08)"
     id="g178"><g
       transform=""
       style="fill: rgb(0, 0, 0);"
       id="g177">
<path
   d="M250,0c138.077,0,250,111.93,250,250c0,138.077-111.923,250-250,250C111.93,500,0,388.077,0,250C0,111.93,111.93,0,250,0z"
   id="path176" />
</g></g><g
     transform="translate(200,480) scale(0.08,0.08)"
     id="g180"><g
       transform=""
       style="fill: rgb(0, 0, 0);"
       id="g179">
<path
   d="M250,0c138.077,0,250,111.93,250,250c0,138.077-111.923,250-250,250C111.93,500,0,388.077,0,250C0,111.93,111.93,0,250,0z"
   id="path178" />
</g></g><g
     transform="translate(240,480) scale(0.08,0.08)"
     id="g182"><g
       transform=""
       style="fill: rgb(0, 0, 0);"
       id="g181">
<path
   d="M250,0c138.077,0,250,111.93,250,250c0,138.077-111.923,250-250,250C111.93,500,0,388.077,0,250C0,111.93,111.93,0,250,0z"
   id="path180" />
</g></g><g
     transform="translate(360,480) scale(0.08,0.08)"
     id="g184"><g
       transform=""
       style="fill: rgb(0, 0, 0);"
       id="g183">
<path
   d="M250,0c138.077,0,250,111.93,250,250c0,138.077-111.923,250-250,250C111.93,500,0,388.077,0,250C0,111.93,111.93,0,250,0z"
   id="path182" />
</g></g><g
     transform="translate(400,480) scale(0.08,0.08)"
     id="g186"><g
       transform=""
       style="fill: rgb(0, 0, 0);"
       id="g185">
<path
   d="M250,0c138.077,0,250,111.93,250,250c0,138.077-111.923,250-250,250C111.93,500,0,388.077,0,250C0,111.93,111.93,0,250,0z"
   id="path184" />
</g></g><g
     transform="translate(520,480) scale(0.08,0.08)"
     id="g188"><g
       transform=""
       style="fill: rgb(0, 0, 0);"
       id="g187">
<path
   d="M250,0c138.077,0,250,111.93,250,250c0,138.077-111.923,250-250,250C111.93,500,0,388.077,0,250C0,111.93,111.93,0,250,0z"
   id="path186" />
</g></g><g
     transform="translate(560,480) scale(0.08,0.08)"
     id="g190"><g
       transform=""
       style="fill: rgb(0, 0, 0);"
       id="g189">
<path
   d="M250,0c138.077,0,250,111.93,250,250c0,138.077-111.923,250-250,250C111.93,500,0,388.077,0,250C0,111.93,111.93,0,250,0z"
   id="path188" />
</g></g><g
     transform="translate(600,480) scale(0.08,0.08)"
     id="g192"><g
       transform=""
       style="fill: rgb(0, 0, 0);"
       id="g191">
<path
   d="M250,0c138.077,0,250,111.93,250,250c0,138.077-111.923,250-250,250C111.93,500,0,388.077,0,250C0,111.93,111.93,0,250,0z"
   id="path190" />
</g></g><g
     transform="translate(640,480) scale(0.08,0.08)"
     id="g194"><g
       transform=""
       style="fill: rgb(0, 0, 0);"
       id="g193">
<path
   d="M250,0c138.077,0,250,111.93,250,250c0,138.077-111.923,250-250,250C111.93,500,0,388.077,0,250C0,111.93,111.93,0,250,0z"
   id="path192" />
</g></g><g
     transform="translate(680,480) scale(0.08,0.08)"
     id="g196"><g
       transform=""
       style="fill: rgb(0, 0, 0);"
       id="g195">
<path
   d="M250,0c138.077,0,250,111.93,250,250c0,138.077-111.923,250-250,250C111.93,500,0,388.077,0,250C0,111.93,111.93,0,250,0z"
   id="path194" />
</g></g><g
     transform="translate(720,480) scale(0.08,0.08)"
     id="g198"><g
       transform=""
       style="fill: rgb(0, 0, 0);"
       id="g197">
<path
   d="M250,0c138.077,0,250,111.93,250,250c0,138.077-111.923,250-250,250C111.93,500,0,388.077,0,250C0,111.93,111.93,0,250,0z"
   id="path196" />
</g></g><g
     transform="translate(800,480) scale(0.08,0.08)"
     id="g200"><g
       transform=""
       style="fill: rgb(0, 0, 0);"
       id="g199">
<path
   d="M250,0c138.077,0,250,111.93,250,250c0,138.077-111.923,250-250,250C111.93,500,0,388.077,0,250C0,111.93,111.93,0,250,0z"
   id="path198" />
</g></g><g
     transform="translate(880,480) scale(0.08,0.08)"
     id="g202"><g
       transform=""
       style="fill: rgb(0, 0, 0);"
       id="g201">
<path
   d="M250,0c138.077,0,250,111.93,250,250c0,138.077-111.923,250-250,250C111.93,500,0,388.077,0,250C0,111.93,111.93,0,250,0z"
   id="path200" />
</g></g><g
     transform="translate(920,480) scale(0.08,0.08)"
     id="g204"><g
       transform=""
       style="fill: rgb(0, 0, 0);"
       id="g203">
<path
   d="M250,0c138.077,0,250,111.93,250,250c0,138.077-111.923,250-250,250C111.93,500,0,388.077,0,250C0,111.93,111.93,0,250,0z"
   id="path202" />
</g></g><g
     transform="translate(960,480) scale(0.08,0.08)"
     id="g206"><g
       transform=""
       style="fill: rgb(0, 0, 0);"
       id="g205">
<path
   d="M250,0c138.077,0,250,111.93,250,250c0,138.077-111.923,250-250,250C111.93,500,0,388.077,0,250C0,111.93,111.93,0,250,0z"
   id="path204" />
</g></g><g
     transform="translate(40,520) scale(0.08,0.08)"
     id="g208"><g
       transform=""
       style="fill: rgb(0, 0, 0);"
       id="g207">
<path
   d="M250,0c138.077,0,250,111.93,250,250c0,138.077-111.923,250-250,250C111.93,500,0,388.077,0,250C0,111.93,111.93,0,250,0z"
   id="path206" />
</g></g><g
     transform="translate(80,520) scale(0.08,0.08)"
     id="g210"><g
       transform=""
       style="fill: rgb(0, 0, 0);"
       id="g209">
<path
   d="M250,0c138.077,0,250,111.93,250,250c0,138.077-111.923,250-250,250C111.93,500,0,388.077,0,250C0,111.93,111.93,0,250,0z"
   id="path208" />
</g></g><g
     transform="translate(160,520) scale(0.08,0.08)"
     id="g212"><g
       transform=""
       style="fill: rgb(0, 0, 0);"
       id="g211">
<path
   d="M250,0c138.077,0,250,111.93,250,250c0,138.077-111.923,250-250,250C111.93,500,0,388.077,0,250C0,111.93,111.93,0,250,0z"
   id="path210" />
</g></g><g
     transform="translate(320,520) scale(0.08,0.08)"
     id="g214"><g
       transform=""
       style="fill: rgb(0, 0, 0);"
       id="g213">
<path
   d="M250,0c138.077,0,250,111.93,250,250c0,138.077-111.923,250-250,250C111.93,500,0,388.077,0,250C0,111.93,111.93,0,250,0z"
   id="path212" />
</g></g><g
     transform="translate(440,520) scale(0.08,0.08)"
     id="g216"><g
       transform=""
       style="fill: rgb(0, 0, 0);"
       id="g215">
<path
   d="M250,0c138.077,0,250,111.93,250,250c0,138.077-111.923,250-250,250C111.93,500,0,388.077,0,250C0,111.93,111.93,0,250,0z"
   id="path214" />
</g></g><g
     transform="translate(520,520) scale(0.08,0.08)"
     id="g218"><g
       transform=""
       style="fill: rgb(0, 0, 0);"
       id="g217">
<path
   d="M250,0c138.077,0,250,111.93,250,250c0,138.077-111.923,250-250,250C111.93,500,0,388.077,0,250C0,111.93,111.93,0,250,0z"
   id="path216" />
</g></g><g
     transform="translate(560,520) scale(0.08,0.08)"
     id="g220"><g
       transform=""
       style="fill: rgb(0, 0, 0);"
       id="g219">
<path
   d="M250,0c138.077,0,250,111.93,250,250c0,138.077-111.923,250-250,250C111.93,500,0,388.077,0,250C0,111.93,111.93,0,250,0z"
   id="path218" />
</g></g><g
     transform="translate(600,520) scale(0.08,0.08)"
     id="g222"><g
       transform=""
       style="fill: rgb(0, 0, 0);"
       id="g221">
<path
   d="M250,0c138.077,0,250,111.93,250,250c0,138.077-111.923,250-250,250C111.93,500,0,388.077,0,250C0,111.93,111.93,0,250,0z"
   id="path220" />
</g></g><g
     transform="translate(640,520) scale(0.08,0.08)"
     id="g224"><g
       transform=""
       style="fill: rgb(0, 0, 0);"
       id="g223">
<path
   d="M250,0c138.077,0,250,111.93,250,250c0,138.077-111.923,250-250,250C111.93,500,0,388.077,0,250C0,111.93,111.93,0,250,0z"
   id="path222" />
</g></g><g
     transform="translate(680,520) scale(0.08,0.08)"
     id="g226"><g
       transform=""
       style="fill: rgb(0, 0, 0);"
       id="g225">
<path
   d="M250,0c138.077,0,250,111.93,250,250c0,138.077-111.923,250-250,250C111.93,500,0,388.077,0,250C0,111.93,111.93,0,250,0z"
   id="path224" />
</g></g><g
     transform="translate(720,520) scale(0.08,0.08)"
     id="g228"><g
       transform=""
       style="fill: rgb(0, 0, 0);"
       id="g227">
<path
   d="M250,0c138.077,0,250,111.93,250,250c0,138.077-111.923,250-250,250C111.93,500,0,388.077,0,250C0,111.93,111.93,0,250,0z"
   id="path226" />
</g></g><g
     transform="translate(760,520) scale(0.08,0.08)"
     id="g230"><g
       transform=""
       style="fill: rgb(0, 0, 0);"
       id="g229">
<path
   d="M250,0c138.077,0,250,111.93,250,250c0,138.077-111.923,250-250,250C111.93,500,0,388.077,0,250C0,111.93,111.93,0,250,0z"
   id="path228" />
</g></g><g
     transform="translate(800,520) scale(0.08,0.08)"
     id="g232"><g
       transform=""
       style="fill: rgb(0, 0, 0);"
       id="g231">
<path
   d="M250,0c138.077,0,250,111.93,250,250c0,138.077-111.923,250-250,250C111.93,500,0,388.077,0,250C0,111.93,111.93,0,250,0z"
   id="path230" />
</g></g><g
     transform="translate(960,520) scale(0.08,0.08)"
     id="g234"><g
       transform=""
       style="fill: rgb(0, 0, 0);"
       id="g233">
<path
   d="M250,0c138.077,0,250,111.93,250,250c0,138.077-111.923,250-250,250C111.93,500,0,388.077,0,250C0,111.93,111.93,0,250,0z"
   id="path232" />
</g></g><g
     transform="translate(40,560) scale(0.08,0.08)"
     id="g236"><g
       transform=""
       style="fill: rgb(0, 0, 0);"
       id="g235">
<path
   d="M250,0c138.077,0,250,111.93,250,250c0,138.077-111.923,250-250,250C111.93,500,0,388.077,0,250C0,111.93,111.93,0,250,0z"
   id="path234" />
</g></g><g
     transform="translate(240,560) scale(0.08,0.08)"
     id="g238"><g
       transform=""
       style="fill: rgb(0, 0, 0);"
       id="g237">
<path
   d="M250,0c138.077,0,250,111.93,250,250c0,138.077-111.923,250-250,250C111.93,500,0,388.077,0,250C0,111.93,111.93,0,250,0z"
   id="path236" />
</g></g><g
     transform="translate(280,560) scale(0.08,0.08)"
     id="g240"><g
       transform=""
       style="fill: rgb(0, 0, 0);"
       id="g239">
<path
   d="M250,0c138.077,0,250,111.93,250,250c0,138.077-111.923,250-250,250C111.93,500,0,388.077,0,250C0,111.93,111.93,0,250,0z"
   id="path238" />
</g></g><g
     transform="translate(320,560) scale(0.08,0.08)"
     id="g242"><g
       transform=""
       style="fill: rgb(0, 0, 0);"
       id="g241">
<path
   d="M250,0c138.077,0,250,111.93,250,250c0,138.077-111.923,250-250,250C111.93,500,0,388.077,0,250C0,111.93,111.93,0,250,0z"
   id="path240" />
</g></g><g
     transform="translate(360,560) scale(0.08,0.08)"
     id="g244"><g
       transform=""
       style="fill: rgb(0, 0, 0);"
       id="g243">
<path
   d="M250,0c138.077,0,250,111.93,250,250c0,138.077-111.923,250-250,250C111.93,500,0,388.077,0,250C0,111.93,111.93,0,250,0z"
   id="path242" />
</g></g><g
     transform="translate(480,560) scale(0.08,0.08)"
     id="g246"><g
       transform=""
       style="fill: rgb(0, 0, 0);"
       id="g245">
<path
   d="M250,0c138.077,0,250,111.93,250,250c0,138.077-111.923,250-250,250C111.93,500,0,388.077,0,250C0,111.93,111.93,0,250,0z"
   id="path244" />
</g></g><g
     transform="translate(560,560) scale(0.08,0.08)"
     id="g248"><g
       transform=""
       style="fill: rgb(0, 0, 0);"
       id="g247">
<path
   d="M250,0c138.077,0,250,111.93,250,250c0,138.077-111.923,250-250,250C111.93,500,0,388.077,0,250C0,111.93,111.93,0,250,0z"
   id="path246" />
</g></g><g
     transform="translate(680,560) scale(0.08,0.08)"
     id="g250"><g
       transform=""
       style="fill: rgb(0, 0, 0);"
       id="g249">
<path
   d="M250,0c138.077,0,250,111.93,250,250c0,138.077-111.923,250-250,250C111.93,500,0,388.077,0,250C0,111.93,111.93,0,250,0z"
   id="path248" />
</g></g><g
     transform="translate(800,560) scale(0.08,0.08)"
     id="g252"><g
       transform=""
       style="fill: rgb(0, 0, 0);"
       id="g251">
<path
   d="M250,0c138.077,0,250,111.93,250,250c0,138.077-111.923,250-250,250C111.93,500,0,388.077,0,250C0,111.93,111.93,0,250,0z"
   id="path250" />
</g></g><g
     transform="translate(880,560) scale(0.08,0.08)"
     id="g254"><g
       transform=""
       style="fill: rgb(0, 0, 0);"
       id="g253">
<path
   d="M250,0c138.077,0,250,111.93,250,250c0,138.077-111.923,250-250,250C111.93,500,0,388.077,0,250C0,111.93,111.93,0,250,0z"
   id="path252" />
</g></g><g
     transform="translate(920,560) scale(0.08,0.08)"
     id="g256"><g
       transform=""
       style="fill: rgb(0, 0, 0);"
       id="g255">
<path
   d="M250,0c138.077,0,250,111.93,250,250c0,138.077-111.923,250-250,250C111.93,500,0,388.077,0,250C0,111.93,111.93,0,250,0z"
   id="path254" />
</g></g><g
     transform="translate(0,600) scale(0.08,0.08)"
     id="g258"><g
       transform=""
       style="fill: rgb(0, 0, 0);"
       id="g257">
<path
   d="M250,0c138.077,0,250,111.93,250,250c0,138.077-111.923,250-250,250C111.93,500,0,388.077,0,250C0,111.93,111.93,0,250,0z"
   id="path256" />
</g></g><g
     transform="translate(80,600) scale(0.08,0.08)"
     id="g260"><g
       transform=""
       style="fill: rgb(0, 0, 0);"
       id="g259">
<path
   d="M250,0c138.077,0,250,111.93,250,250c0,138.077-111.923,250-250,250C111.93,500,0,388.077,0,250C0,111.93,111.93,0,250,0z"
   id="path258" />
</g></g><g
     transform="translate(280,600) scale(0.08,0.08)"
     id="g262"><g
       transform=""
       style="fill: rgb(0, 0, 0);"
       id="g261">
<path
   d="M250,0c138.077,0,250,111.93,250,250c0,138.077-111.923,250-250,250C111.93,500,0,388.077,0,250C0,111.93,111.93,0,250,0z"
   id="path260" />
</g></g><g
     transform="translate(480,600) scale(0.08,0.08)"
     id="g264"><g
       transform=""
       style="fill: rgb(0, 0, 0);"
       id="g263">
<path
   d="M250,0c138.077,0,250,111.93,250,250c0,138.077-111.923,250-250,250C111.93,500,0,388.077,0,250C0,111.93,111.93,0,250,0z"
   id="path262" />
</g></g><g
     transform="translate(560,600) scale(0.08,0.08)"
     id="g266"><g
       transform=""
       style="fill: rgb(0, 0, 0);"
       id="g265">
<path
   d="M250,0c138.077,0,250,111.93,250,250c0,138.077-111.923,250-250,250C111.93,500,0,388.077,0,250C0,111.93,111.93,0,250,0z"
   id="path264" />
</g></g><g
     transform="translate(640,600) scale(0.08,0.08)"
     id="g268"><g
       transform=""
       style="fill: rgb(0, 0, 0);"
       id="g267">
<path
   d="M250,0c138.077,0,250,111.93,250,250c0,138.077-111.923,250-250,250C111.93,500,0,388.077,0,250C0,111.93,111.93,0,250,0z"
   id="path266" />
</g></g><g
     transform="translate(680,600) scale(0.08,0.08)"
     id="g270"><g
       transform=""
       style="fill: rgb(0, 0, 0);"
       id="g269">
<path
   d="M250,0c138.077,0,250,111.93,250,250c0,138.077-111.923,250-250,250C111.93,500,0,388.077,0,250C0,111.93,111.93,0,250,0z"
   id="path268" />
</g></g><g
     transform="translate(720,600) scale(0.08,0.08)"
     id="g272"><g
       transform=""
       style="fill: rgb(0, 0, 0);"
       id="g271">
<path
   d="M250,0c138.077,0,250,111.93,250,250c0,138.077-111.923,250-250,250C111.93,500,0,388.077,0,250C0,111.93,111.93,0,250,0z"
   id="path270" />
</g></g><g
     transform="translate(760,600) scale(0.08,0.08)"
     id="g274"><g
       transform=""
       style="fill: rgb(0, 0, 0);"
       id="g273">
<path
   d="M250,0c138.077,0,250,111.93,250,250c0,138.077-111.923,250-250,250C111.93,500,0,388.077,0,250C0,111.93,111.93,0,250,0z"
   id="path272" />
</g></g><g
     transform="translate(800,600) scale(0.08,0.08)"
     id="g276"><g
       transform=""
       style="fill: rgb(0, 0, 0);"
       id="g275">
<path
   d="M250,0c138.077,0,250,111.93,250,250c0,138.077-111.923,250-250,250C111.93,500,0,388.077,0,250C0,111.93,111.93,0,250,0z"
   id="path274" />
</g></g><g
     transform="translate(960,600) scale(0.08,0.08)"
     id="g278"><g
       transform=""
       style="fill: rgb(0, 0, 0);"
       id="g277">
<path
   d="M250,0c138.077,0,250,111.93,250,250c0,138.077-111.923,250-250,250C111.93,500,0,388.077,0,250C0,111.93,111.93,0,250,0z"
   id="path276" />
</g></g><g
     transform="translate(200,640) scale(0.08,0.08)"
     id="g280"><g
       transform=""
       style="fill: rgb(0, 0, 0);"
       id="g279">
<path
   d="M250,0c138.077,0,250,111.93,250,250c0,138.077-111.923,250-250,250C111.93,500,0,388.077,0,250C0,111.93,111.93,0,250,0z"
   id="path278" />
</g></g><g
     transform="translate(240,640) scale(0.08,0.08)"
     id="g282"><g
       transform=""
       style="fill: rgb(0, 0, 0);"
       id="g281">
<path
   d="M250,0c138.077,0,250,111.93,250,250c0,138.077-111.923,250-250,250C111.93,500,0,388.077,0,250C0,111.93,111.93,0,250,0z"
   id="path280" />
</g></g><g
     transform="translate(280,640) scale(0.08,0.08)"
     id="g284"><g
       transform=""
       style="fill: rgb(0, 0, 0);"
       id="g283">
<path
   d="M250,0c138.077,0,250,111.93,250,250c0,138.077-111.923,250-250,250C111.93,500,0,388.077,0,250C0,111.93,111.93,0,250,0z"
   id="path282" />
</g></g><g
     transform="translate(320,640) scale(0.08,0.08)"
     id="g286"><g
       transform=""
       style="fill: rgb(0, 0, 0);"
       id="g285">
<path
   d="M250,0c138.077,0,250,111.93,250,250c0,138.077-111.923,250-250,250C111.93,500,0,388.077,0,250C0,111.93,111.93,0,250,0z"
   id="path284" />
</g></g><g
     transform="translate(400,640) scale(0.08,0.08)"
     id="g288"><g
       transform=""
       style="fill: rgb(0, 0, 0);"
       id="g287">
<path
   d="M250,0c138.077,0,250,111.93,250,250c0,138.077-111.923,250-250,250C111.93,500,0,388.077,0,250C0,111.93,111.93,0,250,0z"
   id="path286" />
</g></g><g
     transform="translate(440,640) scale(0.08,0.08)"
     id="g290"><g
       transform=""
       style="fill: rgb(0, 0, 0);"
       id="g289">
<path
   d="M250,0c138.077,0,250,111.93,250,250c0,138.077-111.923,250-250,250C111.93,500,0,388.077,0,250C0,111.93,111.93,0,250,0z"
   id="path288" />
</g></g><g
     transform="translate(520,640) scale(0.08,0.08)"
     id="g292"><g
       transform=""
       style="fill: rgb(0, 0, 0);"
       id="g291">
<path
   d="M250,0c138.077,0,250,111.93,250,250c0,138.077-111.923,250-250,250C111.93,500,0,388.077,0,250C0,111.93,111.93,0,250,0z"
   id="path290" />
</g></g><g
     transform="translate(600,640) scale(0.08,0.08)"
     id="g294"><g
       transform=""
       style="fill: rgb(0, 0, 0);"
       id="g293">
<path
   d="M250,0c138.077,0,250,111.93,250,250c0,138.077-111.923,250-250,250C111.93,500,0,388.077,0,250C0,111.93,111.93,0,250,0z"
   id="path292" />
</g></g><g
     transform="translate(640,640) scale(0.08,0.08)"
     id="g296"><g
       transform=""
       style="fill: rgb(0, 0, 0);"
       id="g295">
<path
   d="M250,0c138.077,0,250,111.93,250,250c0,138.077-111.923,250-250,250C111.93,500,0,388.077,0,250C0,111.93,111.93,0,250,0z"
   id="path294" />
</g></g><g
     transform="translate(680,640) scale(0.08,0.08)"
     id="g298"><g
       transform=""
       style="fill: rgb(0, 0, 0);"
       id="g297">
<path
   d="M250,0c138.077,0,250,111.93,250,250c0,138.077-111.923,250-250,250C111.93,500,0,388.077,0,250C0,111.93,111.93,0,250,0z"
   id="path296" />
</g></g><g
     transform="translate(720,640) scale(0.08,0.08)"
     id="g300"><g
       transform=""
       style="fill: rgb(0, 0, 0);"
       id="g299">
<path
   d="M250,0c138.077,0,250,111.93,250,250c0,138.077-111.923,250-250,250C111.93,500,0,388.077,0,250C0,111.93,111.93,0,250,0z"
   id="path298" />
</g></g><g
     transform="translate(760,640) scale(0.08,0.08)"
     id="g302"><g
       transform=""
       style="fill: rgb(0, 0, 0);"
       id="g301">
<path
   d="M250,0c138.077,0,250,111.93,250,250c0,138.077-111.923,250-250,250C111.93,500,0,388.077,0,250C0,111.93,111.93,0,250,0z"
   id="path300" />
</g></g><g
     transform="translate(800,640) scale(0.08,0.08)"
     id="g304"><g
       transform=""
       style="fill: rgb(0, 0, 0);"
       id="g303">
<path
   d="M250,0c138.077,0,250,111.93,250,250c0,138.077-111.923,250-250,250C111.93,500,0,388.077,0,250C0,111.93,111.93,0,250,0z"
   id="path302" />
</g></g><g
     transform="translate(840,640) scale(0.08,0.08)"
     id="g306"><g
       transform=""
       style="fill: rgb(0, 0, 0);"
       id="g305">
<path
   d="M250,0c138.077,0,250,111.93,250,250c0,138.077-111.923,250-250,250C111.93,500,0,388.077,0,250C0,111.93,111.93,0,250,0z"
   id="path304" />
</g></g><g
     transform="translate(880,640) scale(0.08,0.08)"
     id="g308"><g
       transform=""
       style="fill: rgb(0, 0, 0);"
       id="g307">
<path
   d="M250,0c138.077,0,250,111.93,250,250c0,138.077-111.923,250-250,250C111.93,500,0,388.077,0,250C0,111.93,111.93,0,250,0z"
   id="path306" />
</g></g><g
     transform="translate(920,640) scale(0.08,0.08)"
     id="g310"><g
       transform=""
       style="fill: rgb(0, 0, 0);"
       id="g309">
<path
   d="M250,0c138.077,0,250,111.93,250,250c0,138.077-111.923,250-250,250C111.93,500,0,388.077,0,250C0,111.93,111.93,0,250,0z"
   id="path308" />
</g></g><g
     transform="translate(960,640) scale(0.08,0.08)"
     id="g312"><g
       transform=""
       style="fill: rgb(0, 0, 0);"
       id="g311">
<path
   d="M250,0c138.077,0,250,111.93,250,250c0,138.077-111.923,250-250,250C111.93,500,0,388.077,0,250C0,111.93,111.93,0,250,0z"
   id="path310" />
</g></g><g
     transform="translate(320,680) scale(0.08,0.08)"
     id="g314"><g
       transform=""
       style="fill: rgb(0, 0, 0);"
       id="g313">
<path
   d="M250,0c138.077,0,250,111.93,250,250c0,138.077-111.923,250-250,250C111.93,500,0,388.077,0,250C0,111.93,111.93,0,250,0z"
   id="path312" />
</g></g><g
     transform="translate(480,680) scale(0.08,0.08)"
     id="g316"><g
       transform=""
       style="fill: rgb(0, 0, 0);"
       id="g315">
<path
   d="M250,0c138.077,0,250,111.93,250,250c0,138.077-111.923,250-250,250C111.93,500,0,388.077,0,250C0,111.93,111.93,0,250,0z"
   id="path314" />
</g></g><g
     transform="translate(640,680) scale(0.08,0.08)"
     id="g318"><g
       transform=""
       style="fill: rgb(0, 0, 0);"
       id="g317">
<path
   d="M250,0c138.077,0,250,111.93,250,250c0,138.077-111.923,250-250,250C111.93,500,0,388.077,0,250C0,111.93,111.93,0,250,0z"
   id="path316" />
</g></g><g
     transform="translate(800,680) scale(0.08,0.08)"
     id="g320"><g
       transform=""
       style="fill: rgb(0, 0, 0);"
       id="g319">
<path
   d="M250,0c138.077,0,250,111.93,250,250c0,138.077-111.923,250-250,250C111.93,500,0,388.077,0,250C0,111.93,111.93,0,250,0z"
   id="path318" />
</g></g><g
     transform="translate(880,680) scale(0.08,0.08)"
     id="g322"><g
       transform=""
       style="fill: rgb(0, 0, 0);"
       id="g321">
<path
   d="M250,0c138.077,0,250,111.93,250,250c0,138.077-111.923,250-250,250C111.93,500,0,388.077,0,250C0,111.93,111.93,0,250,0z"
   id="path320" />
</g></g><g
     transform="translate(960,680) scale(0.08,0.08)"
     id="g324"><g
       transform=""
       style="fill: rgb(0, 0, 0);"
       id="g323">
<path
   d="M250,0c138.077,0,250,111.93,250,250c0,138.077-111.923,250-250,250C111.93,500,0,388.077,0,250C0,111.93,111.93,0,250,0z"
   id="path322" />
</g></g><g
     transform="translate(320,720) scale(0.08,0.08)"
     id="g326"><g
       transform=""
       style="fill: rgb(0, 0, 0);"
       id="g325">
<path
   d="M250,0c138.077,0,250,111.93,250,250c0,138.077-111.923,250-250,250C111.93,500,0,388.077,0,250C0,111.93,111.93,0,250,0z"
   id="path324" />
</g></g><g
     transform="translate(440,720) scale(0.08,0.08)"
     id="g328"><g
       transform=""
       style="fill: rgb(0, 0, 0);"
       id="g327">
<path
   d="M250,0c138.077,0,250,111.93,250,250c0,138.077-111.923,250-250,250C111.93,500,0,388.077,0,250C0,111.93,111.93,0,250,0z"
   id="path326" />
</g></g><g
     transform="translate(480,720) scale(0.08,0.08)"
     id="g330"><g
       transform=""
       style="fill: rgb(0, 0, 0);"
       id="g329">
<path
   d="M250,0c138.077,0,250,111.93,250,250c0,138.077-111.923,250-250,250C111.93,500,0,388.077,0,250C0,111.93,111.93,0,250,0z"
   id="path328" />
</g></g><g
     transform="translate(560,720) scale(0.08,0.08)"
     id="g332"><g
       transform=""
       style="fill: rgb(0, 0, 0);"
       id="g331">
<path
   d="M250,0c138.077,0,250,111.93,250,250c0,138.077-111.923,250-250,250C111.93,500,0,388.077,0,250C0,111.93,111.93,0,250,0z"
   id="path330" />
</g></g><g
     transform="translate(640,720) scale(0.08,0.08)"
     id="g334"><g
       transform=""
       style="fill: rgb(0, 0, 0);"
       id="g333">
<path
   d="M250,0c138.077,0,250,111.93,250,250c0,138.077-111.923,250-250,250C111.93,500,0,388.077,0,250C0,111.93,111.93,0,250,0z"
   id="path332" />
</g></g><g
     transform="translate(720,720) scale(0.08,0.08)"
     id="g336"><g
       transform=""
       style="fill: rgb(0, 0, 0);"
       id="g335">
<path
   d="M250,0c138.077,0,250,111.93,250,250c0,138.077-111.923,250-250,250C111.93,500,0,388.077,0,250C0,111.93,111.93,0,250,0z"
   id="path334" />
</g></g><g
     transform="translate(800,720) scale(0.08,0.08)"
     id="g338"><g
       transform=""
       style="fill: rgb(0, 0, 0);"
       id="g337">
<path
   d="M250,0c138.077,0,250,111.93,250,250c0,138.077-111.923,250-250,250C111.93,500,0,388.077,0,250C0,111.93,111.93,0,250,0z"
   id="path336" />
</g></g><g
     transform="translate(880,720) scale(0.08,0.08)"
     id="g340"><g
       transform=""
       style="fill: rgb(0, 0, 0);"
       id="g339">
<path
   d="M250,0c138.077,0,250,111.93,250,250c0,138.077-111.923,250-250,250C111.93,500,0,388.077,0,250C0,111.93,111.93,0,250,0z"
   id="path338" />
</g></g><g
     transform="translate(920,720) scale(0.08,0.08)"
     id="g342"><g
       transform=""
       style="fill: rgb(0, 0, 0);"
       id="g341">
<path
   d="M250,0c138.077,0,250,111.93,250,250c0,138.077-111.923,250-250,250C111.93,500,0,388.077,0,250C0,111.93,111.93,0,250,0z"
   id="path340" />
</g></g><g
     transform="translate(960,720) scale(0.08,0.08)"
     id="g344"><g
       transform=""
       style="fill: rgb(0, 0, 0);"
       id="g343">
<path
   d="M250,0c138.077,0,250,111.93,250,250c0,138.077-111.923,250-250,250C111.93,500,0,388.077,0,250C0,111.93,111.93,0,250,0z"
   id="path342" />
</g></g><g
     transform="translate(320,760) scale(0.08,0.08)"
     id="g346"><g
       transform=""
       style="fill: rgb(0, 0, 0);"
       id="g345">
<path
   d="M250,0c138.077,0,250,111.93,250,250c0,138.077-111.923,250-250,250C111.93,500,0,388.077,0,250C0,111.93,111.93,0,250,0z"
   id="path344" />
</g></g><g
     transform="translate(360,760) scale(0.08,0.08)"
     id="g348"><g
       transform=""
       style="fill: rgb(0, 0, 0);"
       id="g347">
<path
   d="M250,0c138.077,0,250,111.93,250,250c0,138.077-111.923,250-250,250C111.93,500,0,388.077,0,250C0,111.93,111.93,0,250,0z"
   id="path346" />
</g></g><g
     transform="translate(480,760) scale(0.08,0.08)"
     id="g350"><g
       transform=""
       style="fill: rgb(0, 0, 0);"
       id="g349">
<path
   d="M250,0c138.077,0,250,111.93,250,250c0,138.077-111.923,250-250,250C111.93,500,0,388.077,0,250C0,111.93,111.93,0,250,0z"
   id="path348" />
</g></g><g
     transform="translate(600,760) scale(0.08,0.08)"
     id="g352"><g
       transform=""
       style="fill: rgb(0, 0, 0);"
       id="g351">
<path
   d="M250,0c138.077,0,250,111.93,250,250c0,138.077-111.923,250-250,250C111.93,500,0,388.077,0,250C0,111.93,111.93,0,250,0z"
   id="path350" />
</g></g><g
     transform="translate(640,760) scale(0.08,0.08)"
     id="g354"><g
       transform=""
       style="fill: rgb(0, 0, 0);"
       id="g353">
<path
   d="M250,0c138.077,0,250,111.93,250,250c0,138.077-111.923,250-250,250C111.93,500,0,388.077,0,250C0,111.93,111.93,0,250,0z"
   id="path352" />
</g></g><g
     transform="translate(800,760) scale(0.08,0.08)"
     id="g356"><g
       transform=""
       style="fill: rgb(0, 0, 0);"
       id="g355">
<path
   d="M250,0c138.077,0,250,111.93,250,250c0,138.077-111.923,250-250,250C111.93,500,0,388.077,0,250C0,111.93,111.93,0,250,0z"
   id="path354" />
</g></g><g
     transform="translate(920,760) scale(0.08,0.08)"
     id="g358"><g
       transform=""
       style="fill: rgb(0, 0, 0);"
       id="g357">
<path
   d="M250,0c138.077,0,250,111.93,250,250c0,138.077-111.923,250-250,250C111.93,500,0,388.077,0,250C0,111.93,111.93,0,250,0z"
   id="path356" />
</g></g><g
     transform="translate(960,760) scale(0.08,0.08)"
     id="g360"><g
       transform=""
       style="fill: rgb(0, 0, 0);"
       id="g359">
<path
   d="M250,0c138.077,0,250,111.93,250,250c0,138.077-111.923,250-250,250C111.93,500,0,388.077,0,250C0,111.93,111.93,0,250,0z"
   id="path358" />
</g></g><g
     transform="translate(440,800) scale(0.08,0.08)"
     id="g362"><g
       transform=""
       style="fill: rgb(0, 0, 0);"
       id="g361">
<path
   d="M250,0c138.077,0,250,111.93,250,250c0,138.077-111.923,250-250,250C111.93,500,0,388.077,0,250C0,111.93,111.93,0,250,0z"
   id="path360" />
</g></g><g
     transform="translate(480,800) scale(0.08,0.08)"
     id="g364"><g
       transform=""
       style="fill: rgb(0, 0, 0);"
       id="g363">
<path
   d="M250,0c138.077,0,250,111.93,250,250c0,138.077-111.923,250-250,250C111.93,500,0,388.077,0,250C0,111.93,111.93,0,250,0z"
   id="path362" />
</g></g><g
     transform="translate(520,800) scale(0.08,0.08)"
     id="g366"><g
       transform=""
       style="fill: rgb(0, 0, 0);"
       id="g365">
<path
   d="M250,0c138.077,0,250,111.93,250,250c0,138.077-111.923,250-250,250C111.93,500,0,388.077,0,250C0,111.93,111.93,0,250,0z"
   id="path364" />
</g></g><g
     transform="translate(640,800) scale(0.08,0.08)"
     id="g368"><g
       transform=""
       style="fill: rgb(0, 0, 0);"
       id="g367">
<path
   d="M250,0c138.077,0,250,111.93,250,250c0,138.077-111.923,250-250,250C111.93,500,0,388.077,0,250C0,111.93,111.93,0,250,0z"
   id="path366" />
</g></g><g
     transform="translate(680,800) scale(0.08,0.08)"
     id="g370"><g
       transform=""
       style="fill: rgb(0, 0, 0);"
       id="g369">
<path
   d="M250,0c138.077,0,250,111.93,250,250c0,138.077-111.923,250-250,250C111.93,500,0,388.077,0,250C0,111.93,111.93,0,250,0z"
   id="path368" />
</g></g><g
     transform="translate(720,800) scale(0.08,0.08)"
     id="g372"><g
       transform=""
       style="fill: rgb(0, 0, 0);"
       id="g371">
<path
   d="M250,0c138.077,0,250,111.93,250,250c0,138.077-111.923,250-250,250C111.93,500,0,388.077,0,250C0,111.93,111.93,0,250,0z"
   id="path370" />
</g></g><g
     transform="translate(760,800) scale(0.08,0.08)"
     id="g374"><g
       transform=""
       style="fill: rgb(0, 0, 0);"
       id="g373">
<path
   d="M250,0c138.077,0,250,111.93,250,250c0,138.077-111.923,250-250,250C111.93,500,0,388.077,0,250C0,111.93,111.93,0,250,0z"
   id="path372" />
</g></g><g
     transform="translate(800,800) scale(0.08,0.08)"
     id="g376"><g
       transform=""
       style="fill: rgb(0, 0, 0);"
       id="g375">
<path
   d="M250,0c138.077,0,250,111.93,250,250c0,138.077-111.923,250-250,250C111.93,500,0,388.077,0,250C0,111.93,111.93,0,250,0z"
   id="path374" />
</g></g><g
     transform="translate(840,800) scale(0.08,0.08)"
     id="g378"><g
       transform=""
       style="fill: rgb(0, 0, 0);"
       id="g377">
<path
   d="M250,0c138.077,0,250,111.93,250,250c0,138.077-111.923,250-250,250C111.93,500,0,388.077,0,250C0,111.93,111.93,0,250,0z"
   id="path376" />
</g></g><g
     transform="translate(920,800) scale(0.08,0.08)"
     id="g380"><g
       transform=""
       style="fill: rgb(0, 0, 0);"
       id="g379">
<path
   d="M250,0c138.077,0,250,111.93,250,250c0,138.077-111.923,250-250,250C111.93,500,0,388.077,0,250C0,111.93,111.93,0,250,0z"
   id="path378" />
</g></g><g
     transform="translate(320,840) scale(0.08,0.08)"
     id="g382"><g
       transform=""
       style="fill: rgb(0, 0, 0);"
       id="g381">
<path
   d="M250,0c138.077,0,250,111.93,250,250c0,138.077-111.923,250-250,250C111.93,500,0,388.077,0,250C0,111.93,111.93,0,250,0z"
   id="path380" />
</g></g><g
     transform="translate(360,840) scale(0.08,0.08)"
     id="g384"><g
       transform=""
       style="fill: rgb(0, 0, 0);"
       id="g383">
<path
   d="M250,0c138.077,0,250,111.93,250,250c0,138.077-111.923,250-250,250C111.93,500,0,388.077,0,250C0,111.93,111.93,0,250,0z"
   id="path382" />
</g></g><g
     transform="translate(480,840) scale(0.08,0.08)"
     id="g386"><g
       transform=""
       style="fill: rgb(0, 0, 0);"
       id="g385">
<path
   d="M250,0c138.077,0,250,111.93,250,250c0,138.077-111.923,250-250,250C111.93,500,0,388.077,0,250C0,111.93,111.93,0,250,0z"
   id="path384" />
</g></g><g
     transform="translate(520,840) scale(0.08,0.08)"
     id="g388"><g
       transform=""
       style="fill: rgb(0, 0, 0);"
       id="g387">
<path
   d="M250,0c138.077,0,250,111.93,250,250c0,138.077-111.923,250-250,250C111.93,500,0,388.077,0,250C0,111.93,111.93,0,250,0z"
   id="path386" />
</g></g><g
     transform="translate(600,840) scale(0.08,0.08)"
     id="g390"><g
       transform=""
       style="fill: rgb(0, 0, 0);"
       id="g389">
<path
   d="M250,0c138.077,0,250,111.93,250,250c0,138.077-111.923,250-250,250C111.93,500,0,388.077,0,250C0,111.93,111.93,0,250,0z"
   id="path388" />
</g></g><g
     transform="translate(680,840) scale(0.08,0.08)"
     id="g392"><g
       transform=""
       style="fill: rgb(0, 0, 0);"
       id="g391">
<path
   d="M250,0c138.077,0,250,111.93,250,250c0,138.077-111.923,250-250,250C111.93,500,0,388.077,0,250C0,111.93,111.93,0,250,0z"
   id="path390" />
</g></g><g
     transform="translate(720,840) scale(0.08,0.08)"
     id="g394"><g
       transform=""
       style="fill: rgb(0, 0, 0);"
       id="g393">
<path
   d="M250,0c138.077,0,250,111.93,250,250c0,138.077-111.923,250-250,250C111.93,500,0,388.077,0,250C0,111.93,111.93,0,250,0z"
   id="path392" />
</g></g><g
     transform="translate(800,840) scale(0.08,0.08)"
     id="g396"><g
       transform=""
       style="fill: rgb(0, 0, 0);"
       id="g395">
<path
   d="M250,0c138.077,0,250,111.93,250,250c0,138.077-111.923,250-250,250C111.93,500,0,388.077,0,250C0,111.93,111.93,0,250,0z"
   id="path394" />
</g></g><g
     transform="translate(840,840) scale(0.08,0.08)"
     id="g398"><g
       transform=""
       style="fill: rgb(0, 0, 0);"
       id="g397">
<path
   d="M250,0c138.077,0,250,111.93,250,250c0,138.077-111.923,250-250,250C111.93,500,0,388.077,0,250C0,111.93,111.93,0,250,0z"
   id="path396" />
</g></g><g
     transform="translate(880,840) scale(0.08,0.08)"
     id="g400"><g
       transform=""
       style="fill: rgb(0, 0, 0);"
       id="g399">
<path
   d="M250,0c138.077,0,250,111.93,250,250c0,138.077-111.923,250-250,250C111.93,500,0,388.077,0,250C0,111.93,111.93,0,250,0z"
   id="path398" />
</g></g><g
     transform="translate(920,840) scale(0.08,0.08)"
     id="g402"><g
       transform=""
       style="fill: rgb(0, 0, 0);"
       id="g401">
<path
   d="M250,0c138.077,0,250,111.93,250,250c0,138.077-111.923,250-250,250C111.93,500,0,388.077,0,250C0,111.93,111.93,0,250,0z"
   id="path400" />
</g></g><g
     transform="translate(960,840) scale(0.08,0.08)"
     id="g404"><g
       transform=""
       style="fill: rgb(0, 0, 0);"
       id="g403">
<path
   d="M250,0c138.077,0,250,111.93,250,250c0,138.077-111.923,250-250,250C111.93,500,0,388.077,0,250C0,111.93,111.93,0,250,0z"
   id="path402" />
</g></g><g
     transform="translate(320,880) scale(0.08,0.08)"
     id="g406"><g
       transform=""
       style="fill: rgb(0, 0, 0);"
       id="g405">
<path
   d="M250,0c138.077,0,250,111.93,250,250c0,138.077-111.923,250-250,250C111.93,500,0,388.077,0,250C0,111.93,111.93,0,250,0z"
   id="path404" />
</g></g><g
     transform="translate(400,880) scale(0.08,0.08)"
     id="g408"><g
       transform=""
       style="fill: rgb(0, 0, 0);"
       id="g407">
<path
   d="M250,0c138.077,0,250,111.93,250,250c0,138.077-111.923,250-250,250C111.93,500,0,388.077,0,250C0,111.93,111.93,0,250,0z"
   id="path406" />
</g></g><g
     transform="translate(440,880) scale(0.08,0.08)"
     id="g410"><g
       transform=""
       style="fill: rgb(0, 0, 0);"
       id="g409">
<path
   d="M250,0c138.077,0,250,111.93,250,250c0,138.077-111.923,250-250,250C111.93,500,0,388.077,0,250C0,111.93,111.93,0,250,0z"
   id="path408" />
</g></g><g
     transform="translate(480,880) scale(0.08,0.08)"
     id="g412"><g
       transform=""
       style="fill: rgb(0, 0, 0);"
       id="g411">
<path
   d="M250,0c138.077,0,250,111.93,250,250c0,138.077-111.923,250-250,250C111.93,500,0,388.077,0,250C0,111.93,111.93,0,250,0z"
   id="path410" />
</g></g><g
     transform="translate(520,880) scale(0.08,0.08)"
     id="g414"><g
       transform=""
       style="fill: rgb(0, 0, 0);"
       id="g413">
<path
   d="M250,0c138.077,0,250,111.93,250,250c0,138.077-111.923,250-250,250C111.93,500,0,388.077,0,250C0,111.93,111.93,0,250,0z"
   id="path412" />
</g></g><g
     transform="translate(720,880) scale(0.08,0.08)"
     id="g416"><g
       transform=""
       style="fill: rgb(0, 0, 0);"
       id="g415">
<path
   d="M250,0c138.077,0,250,111.93,250,250c0,138.077-111.923,250-250,250C111.93,500,0,388.077,0,250C0,111.93,111.93,0,250,0z"
   id="path414" />
</g></g><g
     transform="translate(800,880) scale(0.08,0.08)"
     id="g418"><g
       transform=""
       style="fill: rgb(0, 0, 0);"
       id="g417">
<path
   d="M250,0c138.077,0,250,111.93,250,250c0,138.077-111.923,250-250,250C111.93,500,0,388.077,0,250C0,111.93,111.93,0,250,0z"
   id="path416" />
</g></g><g
     transform="translate(880,880) scale(0.08,0.08)"
     id="g420"><g
       transform=""
       style="fill: rgb(0, 0, 0);"
       id="g419">
<path
   d="M250,0c138.077,0,250,111.93,250,250c0,138.077-111.923,250-250,250C111.93,500,0,388.077,0,250C0,111.93,111.93,0,250,0z"
   id="path418" />
</g></g><g
     transform="translate(920,880) scale(0.08,0.08)"
     id="g422"><g
       transform=""
       style="fill: rgb(0, 0, 0);"
       id="g421">
<path
   d="M250,0c138.077,0,250,111.93,250,250c0,138.077-111.923,250-250,250C111.93,500,0,388.077,0,250C0,111.93,111.93,0,250,0z"
   id="path420" />
</g></g><g
     transform="translate(360,920) scale(0.08,0.08)"
     id="g424"><g
       transform=""
       style="fill: rgb(0, 0, 0);"
       id="g423">
<path
   d="M250,0c138.077,0,250,111.93,250,250c0,138.077-111.923,250-250,250C111.93,500,0,388.077,0,250C0,111.93,111.93,0,250,0z"
   id="path422" />
</g></g><g
     transform="translate(400,920) scale(0.08,0.08)"
     id="g426"><g
       transform=""
       style="fill: rgb(0, 0, 0);"
       id="g425">
<path
   d="M250,0c138.077,0,250,111.93,250,250c0,138.077-111.923,250-250,250C111.93,500,0,388.077,0,250C0,111.93,111.93,0,250,0z"
   id="path424" />
</g></g><g
     transform="translate(600,920) scale(0.08,0.08)"
     id="g428"><g
       transform=""
       style="fill: rgb(0, 0, 0);"
       id="g427">
<path
   d="M250,0c138.077,0,250,111.93,250,250c0,138.077-111.923,250-250,250C111.93,500,0,388.077,0,250C0,111.93,111.93,0,250,0z"
   id="path426" />
</g></g><g
     transform="translate(680,920) scale(0.08,0.08)"
     id="g430"><g
       transform=""
       style="fill: rgb(0, 0, 0);"
       id="g429">
<path
   d="M250,0c138.077,0,250,111.93,250,250c0,138.077-111.923,250-250,250C111.93,500,0,388.077,0,250C0,111.93,111.93,0,250,0z"
   id="path428" />
</g></g><g
     transform="translate(800,920) scale(0.08,0.08)"
     id="g432"><g
       transform=""
       style="fill: rgb(0, 0, 0);"
       id="g431">
<path
   d="M250,0c138.077,0,250,111.93,250,250c0,138.077-111.923,250-250,250C111.93,500,0,388.077,0,250C0,111.93,111.93,0,250,0z"
   id="path430" />
</g></g><g
     transform="translate(880,920) scale(0.08,0.08)"
     id="g434"><g
       transform=""
       style="fill: rgb(0, 0, 0);"
       id="g433">
<path
   d="M250,0c138.077,0,250,111.93,250,250c0,138.077-111.923,250-250,250C111.93,500,0,388.077,0,250C0,111.93,111.93,0,250,0z"
   id="path432" />
</g></g><g
     transform="translate(320,960) scale(0.08,0.08)"
     id="g436"><g
       transform=""
       style="fill: rgb(0, 0, 0);"
       id="g435">
<path
   d="M250,0c138.077,0,250,111.93,250,250c0,138.077-111.923,250-250,250C111.93,500,0,388.077,0,250C0,111.93,111.93,0,250,0z"
   id="path434" />
</g></g><g
     transform="translate(480,960) scale(0.08,0.08)"
     id="g438"><g
       transform=""
       style="fill: rgb(0, 0, 0);"
       id="g437">
<path
   d="M250,0c138.077,0,250,111.93,250,250c0,138.077-111.923,250-250,250C111.93,500,0,388.077,0,250C0,111.93,111.93,0,250,0z"
   id="path436" />
</g></g><g
     transform="translate(560,960) scale(0.08,0.08)"
     id="g440"><g
       transform=""
       style="fill: rgb(0, 0, 0);"
       id="g439">
<path
   d="M250,0c138.077,0,250,111.93,250,250c0,138.077-111.923,250-250,250C111.93,500,0,388.077,0,250C0,111.93,111.93,0,250,0z"
   id="path438" />
</g></g><g
     transform="translate(680,960) scale(0.08,0.08)"
     id="g442"><g
       transform=""
       style="fill: rgb(0, 0, 0);"
       id="g441">
<path
   d="M250,0c138.077,0,250,111.93,250,250c0,138.077-111.923,250-250,250C111.93,500,0,388.077,0,250C0,111.93,111.93,0,250,0z"
   id="path440" />
</g></g><g
     transform="translate(760,960) scale(0.08,0.08)"
     id="g444"><g
       transform=""
       style="fill: rgb(0, 0, 0);"
       id="g443">
<path
   d="M250,0c138.077,0,250,111.93,250,250c0,138.077-111.923,250-250,250C111.93,500,0,388.077,0,250C0,111.93,111.93,0,250,0z"
   id="path442" />
</g></g><g
     transform="translate(800,960) scale(0.08,0.08)"
     id="g446"><g
       transform=""
       style="fill: rgb(0, 0, 0);"
       id="g445">
<path
   d="M250,0c138.077,0,250,111.93,250,250c0,138.077-111.923,250-250,250C111.93,500,0,388.077,0,250C0,111.93,111.93,0,250,0z"
   id="path444" />
</g></g><g
     transform="translate(840,960) scale(0.08,0.08)"
     id="g448"><g
       transform=""
       style="fill: rgb(0, 0, 0);"
       id="g447">
<path
   d="M250,0c138.077,0,250,111.93,250,250c0,138.077-111.923,250-250,250C111.93,500,0,388.077,0,250C0,111.93,111.93,0,250,0z"
   id="path446" />
</g></g><g
     transform="translate(880,960) scale(0.08,0.08)"
     id="g450"><g
       transform=""
       style="fill: rgb(0, 0, 0);"
       id="g449">
<path
   d="M250,0c138.077,0,250,111.93,250,250c0,138.077-111.923,250-250,250C111.93,500,0,388.077,0,250C0,111.93,111.93,0,250,0z"
   id="path448" />
</g></g><g
     transform="translate(920,960) scale(0.08,0.08)"
     id="g452"><g
       transform=""
       style="fill: rgb(0, 0, 0);"
       id="g451">
<path
   d="M250,0c138.077,0,250,111.93,250,250c0,138.077-111.923,250-250,250C111.93,500,0,388.077,0,250C0,111.93,111.93,0,250,0z"
   id="path450" />
</g></g><g
     transform="translate(960,960) scale(0.08,0.08)"
     id="g454"><g
       transform=""
       style="fill: rgb(0, 0, 0);"
       id="g453">
<path
   d="M250,0c138.077,0,250,111.93,250,250c0,138.077-111.923,250-250,250C111.93,500,0,388.077,0,250C0,111.93,111.93,0,250,0z"
   id="path452" />
</g></g><g
     transform="translate(0,0) scale(2.8, 2.8)"
     id="g457"><g
       transform=""
       style="fill: rgb(0, 0, 0);"
       id="g456">
<g
   id="g455">
	<rect
   x="15"
   y="15"
   style="fill:none;"
   width="70"
   height="70"
   id="rect454" />
	<path
   d="M85,0H15H0v15v70v15h15h70h15V85V15V0H85z M85,85H15V15h70V85z"
   id="path454" />
</g>
</g></g><g
     transform="translate(720,0) scale(2.8, 2.8)"
     id="g460"><g
       transform=""
       style="fill: rgb(0, 0, 0);"
       id="g459">
<g
   id="g458">
	<rect
   x="15"
   y="15"
   style="fill:none;"
   width="70"
   height="70"
   id="rect457" />
	<path
   d="M85,0H15H0v15v70v15h15h70h15V85V15V0H85z M85,85H15V15h70V85z"
   id="path457" />
</g>
</g></g><g
     transform="translate(0,720) scale(2.8, 2.8)"
     id="g463"><g
       transform=""
       style="fill: rgb(0, 0, 0);"
       id="g462">
<g
   id="g461">
	<rect
   x="15"
   y="15"
   style="fill:none;"
   width="70"
   height="70"
   id="rect460" />
	<path
   d="M85,0H15H0v15v70v15h15h70h15V85V15V0H85z M85,85H15V15h70V85z"
   id="path460" />
</g>
</g></g><g
     transform="translate(80,80) scale(1.2, 1.2)"
     id="g465"><g
       transform=""
       style="fill: rgb(0, 0, 0);"
       id="g464">
<rect
   width="100"
   height="100"
   id="rect463" />
</g></g><g
     transform="translate(800,80) scale(1.2, 1.2)"
     id="g467"><g
       transform=""
       style="fill: rgb(0, 0, 0);"
       id="g466">
<rect
   width="100"
   height="100"
   id="rect465" />
</g></g><g
     transform="translate(80,800) scale(1.2, 1.2)"
     id="g469"><g
       transform=""
       style="fill: rgb(0, 0, 0);"
       id="g468">
<rect
   width="100"
   height="100"
   id="rect467" />
</g></g></g></svg>
